<mxfile host="app.diagrams.net" modified="2021-10-31T01:16:41.495Z" agent="5.0 (Windows NT 10.0; Win64; x64) AppleWebKit/537.36 (KHTML, like Gecko) Chrome/94.0.4606.81 Safari/537.36" etag="uLllp-oDk7p3IkeUF_R8" version="15.5.5" type="github">
  <diagram id="oDh-98tpx1bphYJFmZvD" name="Page-1">
    <mxGraphModel dx="2795" dy="1102" grid="1" gridSize="10" guides="1" tooltips="1" connect="1" arrows="1" fold="1" page="1" pageScale="1" pageWidth="827" pageHeight="1169" math="0" shadow="0">
      <root>
        <mxCell id="0" />
        <mxCell id="1" parent="0" />
        <mxCell id="5zbdMQ4XP87mygSoEvfb-7" value="" style="rounded=0;whiteSpace=wrap;html=1;" vertex="1" parent="1">
          <mxGeometry x="-430" y="270" width="1050" height="480" as="geometry" />
        </mxCell>
        <mxCell id="5zbdMQ4XP87mygSoEvfb-22" value="" style="rounded=0;whiteSpace=wrap;html=1;dashed=1;fontSize=16;strokeColor=#d6b656;fillColor=#fff2cc;" vertex="1" parent="1">
          <mxGeometry x="-430" y="270" width="280" height="290" as="geometry" />
        </mxCell>
        <mxCell id="5zbdMQ4XP87mygSoEvfb-20" value="Sun room&lt;br&gt;(20 * 45)" style="rounded=0;whiteSpace=wrap;html=1;fontSize=16;fillColor=#d5e8d4;strokeColor=#82b366;dashed=1;" vertex="1" parent="1">
          <mxGeometry x="-150" y="270" width="450" height="200" as="geometry" />
        </mxCell>
        <mxCell id="5zbdMQ4XP87mygSoEvfb-8" value="" style="endArrow=none;html=1;rounded=0;entryX=-0.004;entryY=0.657;entryDx=0;entryDy=0;entryPerimeter=0;" edge="1" parent="1">
          <mxGeometry width="50" height="50" relative="1" as="geometry">
            <mxPoint x="-350" y="562" as="sourcePoint" />
            <mxPoint x="-151.80000000000018" y="561.98" as="targetPoint" />
          </mxGeometry>
        </mxCell>
        <mxCell id="5zbdMQ4XP87mygSoEvfb-13" value="20 ft" style="edgeLabel;html=1;align=center;verticalAlign=middle;resizable=0;points=[];fontSize=16;" vertex="1" connectable="0" parent="5zbdMQ4XP87mygSoEvfb-8">
          <mxGeometry x="-0.1826" y="2" relative="1" as="geometry">
            <mxPoint as="offset" />
          </mxGeometry>
        </mxCell>
        <mxCell id="5zbdMQ4XP87mygSoEvfb-9" value="" style="endArrow=none;html=1;rounded=0;" edge="1" parent="1">
          <mxGeometry width="50" height="50" relative="1" as="geometry">
            <mxPoint x="300" y="610" as="sourcePoint" />
            <mxPoint x="480" y="610" as="targetPoint" />
          </mxGeometry>
        </mxCell>
        <mxCell id="5zbdMQ4XP87mygSoEvfb-16" value="18 ft" style="edgeLabel;html=1;align=center;verticalAlign=middle;resizable=0;points=[];fontSize=16;" vertex="1" connectable="0" parent="5zbdMQ4XP87mygSoEvfb-9">
          <mxGeometry x="-0.2333" y="-5" relative="1" as="geometry">
            <mxPoint x="11" y="5" as="offset" />
          </mxGeometry>
        </mxCell>
        <mxCell id="5zbdMQ4XP87mygSoEvfb-12" value="" style="endArrow=none;html=1;rounded=0;" edge="1" parent="1">
          <mxGeometry width="50" height="50" relative="1" as="geometry">
            <mxPoint x="-150" y="470" as="sourcePoint" />
            <mxPoint x="300" y="470" as="targetPoint" />
          </mxGeometry>
        </mxCell>
        <mxCell id="5zbdMQ4XP87mygSoEvfb-15" value="45ft" style="edgeLabel;html=1;align=center;verticalAlign=middle;resizable=0;points=[];fontSize=16;" vertex="1" connectable="0" parent="5zbdMQ4XP87mygSoEvfb-12">
          <mxGeometry x="-0.0933" relative="1" as="geometry">
            <mxPoint as="offset" />
          </mxGeometry>
        </mxCell>
        <mxCell id="5zbdMQ4XP87mygSoEvfb-23" value="House" style="text;html=1;resizable=0;autosize=1;align=center;verticalAlign=middle;points=[];fillColor=none;strokeColor=none;rounded=0;dashed=1;fontSize=45;" vertex="1" parent="1">
          <mxGeometry x="-25" y="590" width="150" height="60" as="geometry" />
        </mxCell>
        <mxCell id="5zbdMQ4XP87mygSoEvfb-24" value="" style="endArrow=none;html=1;rounded=0;fontSize=45;" edge="1" parent="1">
          <mxGeometry width="50" height="50" relative="1" as="geometry">
            <mxPoint x="-350" y="750" as="sourcePoint" />
            <mxPoint x="-350" y="560" as="targetPoint" />
          </mxGeometry>
        </mxCell>
        <mxCell id="5zbdMQ4XP87mygSoEvfb-25" value="" style="endArrow=none;html=1;rounded=0;fontSize=45;" edge="1" parent="1">
          <mxGeometry width="50" height="50" relative="1" as="geometry">
            <mxPoint x="485" y="750" as="sourcePoint" />
            <mxPoint x="485" y="610" as="targetPoint" />
          </mxGeometry>
        </mxCell>
        <mxCell id="5zbdMQ4XP87mygSoEvfb-10" value="" style="endArrow=none;html=1;rounded=0;exitX=-0.002;exitY=0.664;exitDx=0;exitDy=0;exitPerimeter=0;entryX=0;entryY=0;entryDx=0;entryDy=0;" edge="1" parent="1">
          <mxGeometry width="50" height="50" relative="1" as="geometry">
            <mxPoint x="-150.9000000000001" y="562.96" as="sourcePoint" />
            <mxPoint x="-150" y="470" as="targetPoint" />
          </mxGeometry>
        </mxCell>
        <mxCell id="5zbdMQ4XP87mygSoEvfb-14" value="8ft" style="edgeLabel;html=1;align=center;verticalAlign=middle;resizable=0;points=[];fontSize=16;" vertex="1" connectable="0" parent="5zbdMQ4XP87mygSoEvfb-10">
          <mxGeometry x="0.3766" y="-2" relative="1" as="geometry">
            <mxPoint as="offset" />
          </mxGeometry>
        </mxCell>
        <mxCell id="5zbdMQ4XP87mygSoEvfb-26" value="" style="rounded=0;whiteSpace=wrap;html=1;dashed=1;fontSize=16;strokeColor=#d6b656;fillColor=#fff2cc;" vertex="1" parent="1">
          <mxGeometry x="-430" y="560" width="80" height="190" as="geometry" />
        </mxCell>
        <mxCell id="5zbdMQ4XP87mygSoEvfb-27" value="" style="rounded=0;whiteSpace=wrap;html=1;dashed=1;fontSize=16;strokeColor=#d6b656;fillColor=#fff2cc;" vertex="1" parent="1">
          <mxGeometry x="300" y="270" width="260" height="340" as="geometry" />
        </mxCell>
        <mxCell id="5zbdMQ4XP87mygSoEvfb-11" value="&lt;font style=&quot;font-size: 16px&quot;&gt;14 ft&lt;/font&gt;" style="endArrow=none;html=1;rounded=0;exitX=1;exitY=1;exitDx=0;exitDy=0;entryX=1;entryY=0;entryDx=0;entryDy=0;" edge="1" parent="1">
          <mxGeometry width="50" height="50" relative="1" as="geometry">
            <mxPoint x="300" y="610" as="sourcePoint" />
            <mxPoint x="300" y="470" as="targetPoint" />
          </mxGeometry>
        </mxCell>
        <mxCell id="5zbdMQ4XP87mygSoEvfb-28" value="" style="rounded=0;whiteSpace=wrap;html=1;fontSize=45;strokeColor=#330000;fillColor=#FFFFFF;" vertex="1" parent="1">
          <mxGeometry x="-155" y="337" width="10" height="60" as="geometry" />
        </mxCell>
        <mxCell id="5zbdMQ4XP87mygSoEvfb-29" value="&lt;span style=&quot;font-size: 16px&quot;&gt;20ft&lt;/span&gt;" style="text;html=1;resizable=0;autosize=1;align=center;verticalAlign=middle;points=[];fillColor=none;strokeColor=none;rounded=0;fontSize=45;" vertex="1" parent="1">
          <mxGeometry x="-170" y="380" width="40" height="70" as="geometry" />
        </mxCell>
        <mxCell id="5zbdMQ4XP87mygSoEvfb-30" value="" style="rounded=0;whiteSpace=wrap;html=1;fontSize=45;strokeColor=#330000;fillColor=#FFFFFF;" vertex="1" parent="1">
          <mxGeometry x="296" y="333" width="10" height="60" as="geometry" />
        </mxCell>
        <mxCell id="5zbdMQ4XP87mygSoEvfb-31" value="&lt;a href=&quot;https://www.flooranddecor.com/marble-stone/masselina-sandblast-textured-marble-stone-tile-100840222.html?rrec=true&quot; title=&quot;Masselina Sandblast Textured Marble Stone Tile&quot; class=&quot;name-link productsearchhittile&quot; style=&quot;color: rgb(61 , 61 , 61) ; overflow: hidden ; outline: medium ; cursor: pointer ; margin: 0px ; padding: 0px ; border: 0px ; max-height: 3.9em ; line-height: 1.3em ; text-overflow: ellipsis ; font-size: 12px ; font-weight: 700 ; font-family: &amp;#34;roboto&amp;#34; , &amp;#34;arial&amp;#34; , sans-serif ; text-align: left ; background-color: rgb(255 , 255 , 255)&quot;&gt;Marble Stone Tile&lt;/a&gt;" style="text;html=1;resizable=0;autosize=1;align=center;verticalAlign=middle;points=[];fillColor=none;strokeColor=none;rounded=0;fontSize=45;" vertex="1" parent="1">
          <mxGeometry x="-360" y="390" width="110" height="60" as="geometry" />
        </mxCell>
        <mxCell id="5zbdMQ4XP87mygSoEvfb-32" value="" style="ellipse;whiteSpace=wrap;html=1;fontSize=45;strokeColor=#330000;fillColor=#FFFFFF;" vertex="1" parent="1">
          <mxGeometry x="580" y="280" width="30" height="30" as="geometry" />
        </mxCell>
        <mxCell id="5zbdMQ4XP87mygSoEvfb-33" value="" style="ellipse;whiteSpace=wrap;html=1;fontSize=45;strokeColor=#330000;fillColor=#FFFFFF;" vertex="1" parent="1">
          <mxGeometry x="580" y="320" width="30" height="30" as="geometry" />
        </mxCell>
        <mxCell id="5zbdMQ4XP87mygSoEvfb-34" value="" style="ellipse;whiteSpace=wrap;html=1;fontSize=45;strokeColor=#330000;fillColor=#FFFFFF;" vertex="1" parent="1">
          <mxGeometry x="580" y="363" width="30" height="30" as="geometry" />
        </mxCell>
        <mxCell id="5zbdMQ4XP87mygSoEvfb-35" value="" style="ellipse;whiteSpace=wrap;html=1;fontSize=45;strokeColor=#330000;fillColor=#FFFFFF;" vertex="1" parent="1">
          <mxGeometry x="580" y="405" width="30" height="30" as="geometry" />
        </mxCell>
        <mxCell id="5zbdMQ4XP87mygSoEvfb-36" value="" style="ellipse;whiteSpace=wrap;html=1;fontSize=45;strokeColor=#330000;fillColor=#FFFFFF;" vertex="1" parent="1">
          <mxGeometry x="580" y="450" width="30" height="30" as="geometry" />
        </mxCell>
        <mxCell id="5zbdMQ4XP87mygSoEvfb-37" value="" style="ellipse;whiteSpace=wrap;html=1;fontSize=45;strokeColor=#330000;fillColor=#FFFFFF;" vertex="1" parent="1">
          <mxGeometry x="580" y="495" width="30" height="30" as="geometry" />
        </mxCell>
        <mxCell id="5zbdMQ4XP87mygSoEvfb-38" value="" style="ellipse;whiteSpace=wrap;html=1;fontSize=45;strokeColor=#330000;fillColor=#FFFFFF;" vertex="1" parent="1">
          <mxGeometry x="580" y="540" width="30" height="30" as="geometry" />
        </mxCell>
        <mxCell id="5zbdMQ4XP87mygSoEvfb-39" value="" style="ellipse;whiteSpace=wrap;html=1;fontSize=45;strokeColor=#330000;fillColor=#FFFFFF;" vertex="1" parent="1">
          <mxGeometry x="580" y="584.5" width="30" height="30" as="geometry" />
        </mxCell>
        <mxCell id="5zbdMQ4XP87mygSoEvfb-40" value="Trees" style="text;html=1;resizable=0;autosize=1;align=center;verticalAlign=middle;points=[];fillColor=none;strokeColor=none;rounded=0;fontSize=16;" vertex="1" parent="1">
          <mxGeometry x="565" y="640" width="60" height="20" as="geometry" />
        </mxCell>
        <mxCell id="5zbdMQ4XP87mygSoEvfb-41" value="" style="endArrow=classic;html=1;rounded=0;fontSize=16;exitX=0.5;exitY=0;exitDx=0;exitDy=0;exitPerimeter=0;entryX=0.5;entryY=1;entryDx=0;entryDy=0;" edge="1" parent="1" source="5zbdMQ4XP87mygSoEvfb-40" target="5zbdMQ4XP87mygSoEvfb-39">
          <mxGeometry width="50" height="50" relative="1" as="geometry">
            <mxPoint x="-80" y="780" as="sourcePoint" />
            <mxPoint x="-30" y="730" as="targetPoint" />
          </mxGeometry>
        </mxCell>
      </root>
    </mxGraphModel>
  </diagram>
</mxfile>
